<?xml version="1.0" standalone="no"?>
<!DOCTYPE svg PUBLIC "-//W3C//DTD SVG 20010904//EN"
 "http://www.w3.org/TR/2001/REC-SVG-20010904/DTD/svg10.dtd">
<svg version="1.0" xmlns="http://www.w3.org/2000/svg"
 width="256.000000pt" height="256.000000pt" viewBox="0 0 256.000000 256.000000"
 preserveAspectRatio="xMidYMid meet">

<g transform="translate(0.000000,256.000000) scale(0.100000,-0.100000)"
fill="#000000" stroke="none">
<path d="M1553 2510 c-89 -18 -168 -81 -214 -170 -19 -37 -24 -61 -24 -130 0
-99 19 -147 87 -217 144 -148 397 -103 490 86 33 67 33 197 0 261 -67 128
-205 197 -339 170z"/>
<path d="M1738 1910 c-86 -22 -187 -117 -206 -192 -47 -191 -62 -225 -135
-297 -79 -78 -166 -116 -296 -127 -69 -7 -78 -10 -117 -46 -25 -23 -66 -47
-102 -59 l-61 -21 -61 36 c-34 20 -64 36 -69 36 -4 0 -72 -48 -151 -107 l-144
-108 -106 -186 c-58 -102 -111 -193 -117 -201 -7 -8 -44 -27 -82 -42 -80 -31
-96 -46 -87 -81 10 -41 42 -46 116 -18 36 14 75 28 87 30 31 7 103 -36 103
-61 0 -12 -11 -92 -25 -179 -14 -87 -25 -167 -25 -178 0 -11 11 -31 26 -45 19
-20 31 -24 52 -20 44 11 59 39 73 136 6 49 16 87 20 84 5 -3 9 -41 9 -85 0
-72 3 -82 25 -104 31 -32 65 -32 95 0 23 24 23 26 16 197 l-7 173 154 295 155
295 56 22 c52 21 57 22 93 7 29 -13 55 -15 117 -9 167 14 314 71 409 158 36
34 48 40 51 28 19 -67 45 -216 39 -222 -4 -4 -78 -27 -164 -52 -86 -25 -170
-52 -187 -61 -32 -16 -65 -64 -76 -107 -6 -30 98 -619 117 -658 20 -41 81 -83
129 -88 85 -9 177 69 178 150 0 16 -16 117 -36 225 -19 108 -36 203 -37 211
-1 9 28 22 93 41 52 15 96 26 97 25 2 -1 -20 -56 -47 -122 -68 -165 -65 -228
16 -289 l37 -29 336 -3 c333 -2 336 -2 376 21 132 75 100 262 -51 297 -21 5
-110 10 -196 10 -87 0 -158 4 -158 8 0 4 34 92 75 194 53 133 75 198 75 229 0
55 -144 729 -164 767 -49 93 -201 151 -318 122z"/>
<path d="M606 1641 c-19 -10 -57 -37 -84 -60 -35 -29 -68 -45 -113 -57 -35 -9
-77 -24 -93 -34 -29 -18 -31 -18 -78 6 -26 13 -56 24 -66 24 -25 0 -72 -37
-72 -56 0 -8 25 -42 56 -75 31 -34 94 -119 141 -190 55 -85 88 -127 96 -122 7
4 68 47 137 97 69 49 127 91 129 92 2 2 -3 26 -10 53 -13 51 -13 51 18 84 43
45 63 89 63 137 0 89 -57 135 -124 101z"/>
</g>
</svg>
