<?xml version="1.0" standalone="no"?>
<!DOCTYPE svg PUBLIC "-//W3C//DTD SVG 20010904//EN"
 "http://www.w3.org/TR/2001/REC-SVG-20010904/DTD/svg10.dtd">
<svg version="1.0" xmlns="http://www.w3.org/2000/svg"
 width="512.000000pt" height="512.000000pt" viewBox="0 0 512.000000 512.000000"
 preserveAspectRatio="xMidYMid meet">

<g transform="translate(0.000000,512.000000) scale(0.100000,-0.100000)"
fill="#000000" stroke="none">
<path d="M873 4865 c-211 -57 -347 -245 -330 -459 7 -91 37 -168 93 -240 176
-224 522 -220 696 9 63 83 82 144 82 265 1 101 0 108 -36 182 -93 196 -304
297 -505 243z"/>
<path d="M530 3876 c-269 -60 -443 -365 -506 -884 -19 -161 -28 -576 -17 -749
9 -122 11 -134 37 -168 68 -89 193 -85 253 7 l26 39 -6 230 c-12 447 25 788
106 997 l22 57 5 -1500 5 -1500 22 -40 c95 -176 340 -177 428 -2 l25 51 0 913
0 913 50 0 50 0 0 -913 0 -913 25 -51 c91 -182 349 -172 434 17 20 45 21 59
22 1535 1 1477 1 1490 20 1448 81 -177 125 -565 113 -1004 -7 -234 -7 -237 16
-273 23 -39 84 -76 123 -76 21 0 25 -7 37 -57 31 -142 119 -344 206 -475 59
-89 169 -205 252 -266 203 -150 426 -221 721 -229 85 -2 156 -5 157 -6 2 -2
-1 -32 -6 -67 -33 -232 -31 -501 4 -584 30 -73 93 -83 148 -24 45 48 72 110
139 315 60 184 94 263 112 263 5 0 64 -31 130 -69 287 -164 453 -204 592 -145
33 14 67 28 75 30 12 4 37 -43 105 -196 50 -111 101 -213 114 -226 35 -35 93
-33 132 5 17 17 29 40 29 55 0 42 -141 709 -154 727 -12 17 -117 106 -181 154
-22 16 -66 54 -98 83 -42 38 -63 52 -75 46 -114 -48 -189 -44 -391 21 -168 54
-245 59 -339 23 -83 -31 -110 -28 -220 28 -80 40 -112 64 -182 135 -47 47 -99
102 -116 122 -25 30 -38 37 -66 37 -35 0 -68 -25 -81 -63 -24 -67 173 -276
351 -373 l69 -38 -34 -72 c-18 -40 -33 -79 -33 -87 0 -35 -26 -40 -188 -34
-319 13 -532 88 -733 260 -168 144 -309 387 -378 650 l-18 71 30 25 c53 45 58
70 64 349 16 683 -84 1127 -302 1347 -78 78 -147 117 -239 134 -85 16 -813 13
-886 -3z"/>
<path d="M4599 1972 c-69 -36 -103 -94 -95 -163 4 -42 2 -48 -21 -60 -68 -37
-155 -171 -182 -283 l-12 -49 43 -44 c24 -25 73 -67 109 -94 74 -55 217 -125
228 -112 4 4 31 37 59 73 29 36 65 73 80 83 18 10 69 20 131 26 59 5 112 16
125 25 47 30 73 136 46 187 -17 30 -85 59 -186 80 -102 20 -146 43 -208 108
-33 34 -40 48 -44 93 -3 45 0 59 23 92 14 21 24 45 21 52 -9 22 -60 16 -117
-14z m151 -340 c43 -34 17 -112 -37 -112 -30 0 -63 34 -63 65 0 30 32 65 59
65 10 0 29 -8 41 -18z"/>
</g>
</svg>
